<svg width="14" height="14" viewBox="0 0 14 14" fill="none" xmlns="http://www.w3.org/2000/svg">
<path fill-rule="evenodd" clip-rule="evenodd" d="M6.99985 0.15C7.4693 0.15 7.84985 0.530558 7.84985 1L7.84985 13C7.84985 13.4694 7.4693 13.85 6.99985 13.85C6.53041 13.85 6.14985 13.4694 6.14985 13L6.14985 1C6.14985 0.530558 6.53041 0.15 6.99985 0.15Z" fill="#2354cf"/>
<path fill-rule="evenodd" clip-rule="evenodd" d="M0.149902 7C0.149902 6.53056 0.53046 6.15 0.999902 6.15H12.9999C13.4693 6.15 13.8499 6.53056 13.8499 7C13.8499 7.46944 13.4693 7.85 12.9999 7.85H0.999902C0.53046 7.85 0.149902 7.46944 0.149902 7Z" fill="#2354cf"/>
</svg>
