<svg width="14" height="19" viewBox="0 0 14 19" fill="none" xmlns="http://www.w3.org/2000/svg">
<path fill-rule="evenodd" clip-rule="evenodd" d="M0.0303867 6.03905C-0.220377 4.31953 1.11284 2.77778 2.85056 2.77778H10.6694C12.4071 2.77778 13.7403 4.31953 13.4895 6.03905L11.9988 16.2613C11.7946 17.6616 10.5938 18.7 9.17861 18.7H4.3413C2.92615 18.7 1.72534 17.6616 1.52113 16.2613L0.0303867 6.03905ZM2.85056 4.47778C2.14937 4.47778 1.61141 5.09989 1.71259 5.79373L3.20333 16.016C3.28574 16.581 3.77027 17 4.3413 17H9.17861C9.74964 17 10.2342 16.581 10.3166 16.016L11.8073 5.79373C11.9085 5.09989 11.3705 4.47778 10.6694 4.47778H2.85056Z" fill="#2354cf"/>
<path fill-rule="evenodd" clip-rule="evenodd" d="M4.1322 0.85C4.1322 0.380558 4.51276 0 4.9822 0H8.53776C9.0072 0 9.38776 0.380558 9.38776 0.85C9.38776 1.31944 9.0072 1.7 8.53776 1.7H4.9822C4.51276 1.7 4.1322 1.31944 4.1322 0.85Z" fill="#2354cf"/>
<path fill-rule="evenodd" clip-rule="evenodd" d="M4.00845 8.36714C4.33649 8.32028 4.64041 8.54822 4.68727 8.87626L5.57616 15.0985C5.62302 15.4265 5.39508 15.7304 5.06704 15.7773C4.739 15.8242 4.43508 15.5962 4.38822 15.2682L3.49933 9.04596C3.45247 8.71792 3.68041 8.414 4.00845 8.36714Z" fill="#2354cf"/>
<path fill-rule="evenodd" clip-rule="evenodd" d="M8.45286 15.7773C8.12482 15.7304 7.89688 15.4265 7.94374 15.0985L8.83263 8.87626C8.87949 8.54822 9.18341 8.32028 9.51145 8.36714C9.83949 8.414 10.0674 8.71792 10.0206 9.04596L9.13168 15.2682C9.08482 15.5962 8.7809 15.8242 8.45286 15.7773Z" fill="#2354cf"/>
<path fill-rule="evenodd" clip-rule="evenodd" d="M6.75991 15.7833C6.42854 15.7833 6.15991 15.5147 6.15991 15.1833L6.15991 8.96111C6.15991 8.62974 6.42854 8.36111 6.75991 8.36111C7.09128 8.36111 7.35991 8.62974 7.35991 8.96111L7.35991 15.1833C7.35991 15.5147 7.09128 15.7833 6.75991 15.7833Z" fill="#2354cf"/>
</svg>
